<?xml version="1.0" encoding="UTF-8"?>
<svg width="48px" height="48px" viewBox="0 0 48 48" version="1.1" xmlns="http://www.w3.org/2000/svg" xmlns:xlink="http://www.w3.org/1999/xlink">
    <!-- Generator: Sketch 60.1 (88133) - https://sketch.com -->
    <title>购物车</title>
    <desc>Created with Sketch.</desc>
    <g id="连贯" stroke="none" stroke-width="1" fill="none" fill-rule="evenodd">
        <g id="商品详情" transform="translate(-143.000000, -2867.000000)" fill-rule="nonzero">
            <g id="底部" transform="translate(0.000000, 2849.000000)">
                <g id="编组-2备份" transform="translate(131.000000, 14.000000)">
                    <g id="购物车" transform="translate(12.000000, 4.000000)">
                        <rect id="矩形" fill="#000000" opacity="0" x="0.52173913" y="0" width="46.9565217" height="48"></rect>
                        <path d="M15.1304348,41.7391304 C15.1304348,42.4847282 15.5282064,43.1736889 16.173913,43.5464878 C16.8196196,43.9192867 17.615163,43.9192867 18.2608696,43.5464878 C18.9065762,43.1736889 19.3043478,42.4847282 19.3043478,41.7391304 C19.3043478,40.5865362 18.3699856,39.6521739 17.2173913,39.6521739 C16.064797,39.6521739 15.1304348,40.5865362 15.1304348,41.7391304 L15.1304348,41.7391304 Z" id="路径" fill="#555556"></path>
                        <path d="M32.8695652,41.7391304 C32.8695652,42.8917247 33.8039275,43.826087 34.9565217,43.826087 C36.109116,43.826087 37.0434783,42.8917247 37.0434783,41.7391304 C37.0434783,40.5865362 36.109116,39.6521739 34.9565217,39.6521739 C33.8039275,39.6521739 32.8695652,40.5865362 32.8695652,41.7391304 L32.8695652,41.7391304 Z" id="路径" fill="#555556"></path>
                        <path d="M42.6134164,11.1520992 L9.18342521,11.25733 L8.00117463,4.53106523 C7.89600538,3.93283912 7.48631232,3.43735413 6.92642286,3.23125468 C6.3665334,3.02515523 5.74150807,3.13975271 5.28678788,3.53187937 C4.83206769,3.92400604 4.61673545,4.53408851 4.72190472,5.13231461 L5.80039901,11.2680232 L5.79135603,11.2680232 L9.73385708,34.1116113 C9.9749871,35.5087466 11.1656295,36.5259873 12.5547907,36.5217258 L38.4629268,36.4400552 C39.7353127,36.4361897 40.8516441,35.5729585 41.2003318,34.323288 L46.2862938,16.1064525 C46.9816514,13.6183396 45.1471164,11.1440793 42.6134164,11.1520992 Z M43.0826994,15.1737139 L38.0950203,33.0388891 L12.9455426,33.1178729 L9.75955818,14.6577671 L42.6238872,14.5540704 C42.7742918,14.5501202 42.9169455,14.6222795 43.0048822,14.7469581 C43.0983677,14.8672977 43.1275025,15.0270755 43.0826994,15.1737139 L43.0826994,15.1737139 Z" id="形状" stroke="#555556" stroke-width="0.5" fill="#555556"></path>
                        <path d="M33.2889267,26.087179 L17.7932746,26.1468367 C16.8930961,26.1633729 16.1710917,27.0833632 16.173913,28.2102444 C16.176751,29.3371255 16.9033612,30.2514166 17.8036051,30.2608696 L33.2992571,30.2012118 C33.8909108,30.2074244 34.4395648,29.8150755 34.7357611,29.1739508 C35.0319574,28.5328262 35.0299714,27.741898 34.7305612,27.1031167 C34.4311511,26.4643353 33.8805375,26.0763111 33.2889267,26.087179 Z" id="路径" fill="#555556"></path>
                    </g>
                </g>
            </g>
        </g>
    </g>
</svg>