<?xml version="1.0" encoding="UTF-8"?>
<svg width="26px" height="26px" viewBox="0 0 26 26" version="1.1" xmlns="http://www.w3.org/2000/svg" xmlns:xlink="http://www.w3.org/1999/xlink">
    <!-- Generator: Sketch 60.1 (88133) - https://sketch.com -->
    <title>编组 10备份</title>
    <desc>Created with Sketch.</desc>
    <g id="连贯" stroke="none" stroke-width="1" fill="none" fill-rule="evenodd">
        <g id="加入购物车" transform="translate(-681.000000, -416.000000)" fill="#979797">
            <g id="编组-12" transform="translate(1.000000, 380.000000)">
                <g id="编组-10备份" transform="translate(668.000000, 24.000000)">
                    <g id="编组-9" transform="translate(24.999547, 24.911203) rotate(-45.000000) translate(-24.999547, -24.911203) translate(7.499547, 7.564265)">
                        <path d="M1.89053324,15.5515915 L32.4763918,15.5515915 C33.3048189,15.5515915 33.9763918,16.2231644 33.9763918,17.0515915 L33.9763918,17.733762 C33.9763918,18.5621892 33.3048189,19.233762 32.4763918,19.233762 L1.89053324,19.233762 C1.06210611,19.233762 0.390533239,18.5621892 0.390533239,17.733762 L0.390533239,17.0515915 C0.390533239,16.2231644 1.06210611,15.5515915 1.89053324,15.5515915 Z" id="矩形" transform="translate(17.183463, 17.392677) rotate(-270.000000) translate(-17.183463, -17.392677) "></path>
                        <rect id="矩形" transform="translate(17.183463, 17.392677) rotate(-180.000000) translate(-17.183463, -17.392677) " x="0" y="15.5934343" width="34.3669251" height="3.59848485" rx="1.5"></rect>
                    </g>
                </g>
            </g>
        </g>
    </g>
</svg>