<?xml version="1.0" encoding="UTF-8"?>
<svg width="37px" height="40px" viewBox="0 0 37 40" version="1.1" xmlns="http://www.w3.org/2000/svg" xmlns:xlink="http://www.w3.org/1999/xlink">
    <!-- Generator: Sketch 60.1 (88133) - https://sketch.com -->
    <title>删除</title>
    <desc>Created with Sketch.</desc>
    <g id="连贯" stroke="none" stroke-width="1" fill="none" fill-rule="evenodd">
        <g id="搜索页面备份-3" transform="translate(-677.000000, -255.000000)" fill-rule="nonzero">
            <g id="删除" transform="translate(674.000000, 254.000000)">
                <rect id="矩形" fill="#000000" opacity="0" x="0" y="0" width="42" height="42"></rect>
                <path d="M34.5029636,12.1890129 L34.5029636,35.3709695 C34.5029636,36.0097942 34.9479054,38.8704105 33.879585,38.8704105 L10.0964356,38.8704105 C9.61655954,38.8704105 8.60974031,39.0553007 8.54698407,38.3627915 C8.51016708,37.9565305 8.54698407,37.5299565 8.54698407,37.1226591 L8.54698407,12.1892202 C8.54698407,10.8524972 6.45510951,10.8524972 6.45510951,12.1892202 L6.45510951,35.3711768 C6.45510951,37.1908529 6.03819891,39.3956479 7.74495936,40.5912159 C8.3580878,41.0204845 9.20801643,40.9433779 9.92343753,40.9433779 L31.6341669,40.9433779 C33.5969728,40.9433779 36.5948382,41.2099348 36.5948382,38.3607187 L36.5948382,12.1892202 C36.5948382,10.8522899 34.5029636,10.8522899 34.5029636,12.1890129 L34.5029636,12.1890129 Z M20.4786182,17.5698982 L20.4786182,32.1981956 C20.4786182,33.5347113 22.5713295,33.5347113 22.5713295,32.1981956 L22.5713295,17.5698982 C22.5713295,16.2331752 20.4786182,16.2331752 20.4786182,17.5698982 Z M13.2668806,17.5698982 L13.2668806,32.1981956 C13.2668806,33.5347113 15.3587552,33.5347113 15.3587552,32.1981956 L15.3587552,17.5698982 C15.3587552,16.2331752 13.2668806,16.2331752 13.2668806,17.5698982 Z M27.5932928,17.5698982 L27.5932928,32.1981956 C27.5932928,33.5347113 29.6851673,33.5347113 29.6851673,32.1981956 L29.6851673,17.5698982 C29.6851673,16.2331752 27.5932928,16.2331752 27.5932928,17.5698982 Z M4.16178743,9.35389164 L38.8883695,9.35389164 C40.2372102,9.35389164 40.2372102,7.28113151 38.8883695,7.28113151 L4.16178743,7.28113151 C2.81273752,7.28113151 2.81273752,9.35389164 4.16178743,9.35389164 L4.16178743,9.35389164 Z M13.8147426,7.62541696 L13.8147426,4.37470725 C13.8147426,3.63100092 13.8559525,3.12276013 14.7006515,3.12276013 L28.349087,3.12276013 C29.193786,3.12276013 29.2349959,3.63100092 29.2349959,4.37470725 L29.2349959,7.62541696 C29.2349959,8.96213997 31.3268705,8.96213997 31.3268705,7.62541696 C31.3268705,5.40942911 32.0832923,1.05 28.660358,1.05 L14.3891713,1.05 C10.9664462,1.05 11.722868,5.40942911 11.722868,7.62541696 C11.722868,8.96213997 13.8147426,8.96213997 13.8147426,7.62541696 Z" id="形状" fill="#666666"></path>
            </g>
        </g>
    </g>
</svg>