<?xml version="1.0" encoding="UTF-8"?>
<svg width="30px" height="30px" viewBox="0 0 30 30" version="1.1" xmlns="http://www.w3.org/2000/svg" xmlns:xlink="http://www.w3.org/1999/xlink">
    <!-- Generator: Sketch 60.1 (88133) - https://sketch.com -->
    <title>dizhi</title>
    <desc>Created with Sketch.</desc>
    <g id="连贯" stroke="none" stroke-width="1" fill="none" fill-rule="evenodd">
        <g id="商品详情" transform="translate(-124.000000, -1160.000000)" fill-rule="nonzero">
            <g id="编组-5" transform="translate(0.000000, 1126.000000)">
                <g id="地址" transform="translate(124.000000, 34.000000)">
                    <rect id="矩形" fill="#000000" opacity="0" x="1.00780488" y="1" width="28" height="28"></rect>
                    <path d="M15.0388738,29 C9.72946919,29 4.00780488,27.8261732 4.00780488,25.2543054 C4.00780488,23.4474034 6.74370986,22.5109797 9.00489161,22.0493625 C9.38133103,21.9798433 9.74095638,22.2421017 9.81261907,22.6384013 C9.88428176,23.0347009 9.64146147,23.4183825 9.26723866,23.5001597 C6.34394293,24.0804786 5.36951103,24.9377678 5.36951103,25.2411163 C5.36951103,25.9137587 8.64260284,27.5096356 14.988903,27.5096356 C21.3352031,27.5096356 24.6082949,25.9269477 24.6082949,25.2411163 C24.6082949,24.9245788 23.5838921,24.0541005 20.5606547,23.4605925 C20.1815769,23.3871021 19.9302022,23.0037663 19.9984824,22.6033032 C20.0741157,22.2072412 20.4327447,21.9451202 20.810509,22.0097953 C23.1841252,22.4714125 26.0074792,23.3946471 26.0074792,25.2411163 C26.0574501,27.8261732 20.3482785,29 15.0388738,29 L15.0388738,29 Z" id="路径" fill="#999999"></path>
                    <path d="M14.5139339,26.9999732 C14.2307847,27.0022291 13.964762,26.8617454 13.8029662,26.6244914 L7.73522486,17.5009498 C4.07017683,13.6969214 4.10302908,7.58478089 7.80874782,3.82204895 C11.5144666,0.0593170152 17.5011432,0.0593170152 21.2068619,3.82204895 C24.9125807,7.58478089 24.9454329,13.6969214 21.2803849,17.5009498 L15.2126435,26.6244914 C15.0533213,26.8581116 14.792752,26.9981296 14.5139339,26.9999732 L14.5139339,26.9999732 Z M14.5139339,2.75806856 C11.3581215,2.74806256 8.50867325,4.68442597 7.29966425,7.66061715 C6.09065525,10.6368083 6.76137668,14.0637694 8.99780538,16.3370412 L9.0958699,16.4621926 L14.5016759,24.5845226 L19.9074818,16.4621926 L20.0055463,16.3370412 C22.2387849,14.0669808 22.9110437,10.6461149 21.7083337,7.67221249 C20.5056237,4.69831005 17.6652817,2.75806856 14.5139339,2.75806856 Z" id="形状" fill="#999999"></path>
                    <path d="M14.5078049,14 C12.0225235,14 10.0078049,11.9852814 10.0078049,9.5 C10.0078049,7.01471861 12.0225235,5 14.5078049,5 C16.9930863,5 19.0078049,7.01471863 19.0078049,9.5 C19.0078049,10.6934742 18.5336991,11.8380668 17.6897854,12.6819805 C16.8458717,13.5258942 15.7012791,14 14.5078049,14 Z M14.5078049,6.71840659 C13.3827553,6.71840659 12.3684854,7.39612007 11.9379476,8.43553029 C11.5074098,9.47494051 11.7453911,10.6713534 12.5409213,11.4668836 C13.3364514,12.2624137 14.5328643,12.500395 15.5722746,12.0698572 C16.6116848,11.6393194 17.2893983,10.6250495 17.2893983,9.5 C17.2893983,7.96376838 16.0440365,6.71840659 14.5078049,6.71840659 L14.5078049,6.71840659 Z" id="形状" fill="#999999"></path>
                </g>
            </g>
        </g>
    </g>
</svg>