<?xml version="1.0" encoding="UTF-8"?>
<svg width="34px" height="26px" viewBox="0 0 34 26" version="1.1" xmlns="http://www.w3.org/2000/svg" xmlns:xlink="http://www.w3.org/1999/xlink">
    <!-- Generator: Sketch 60.1 (88133) - https://sketch.com -->
    <title>快递</title>
    <desc>Created with Sketch.</desc>
    <g id="连贯" stroke="none" stroke-width="1" fill="none" fill-rule="evenodd">
        <g id="商品详情备份-3" transform="translate(-116.000000, -1229.000000)" fill-rule="nonzero">
            <g id="快递" transform="translate(116.000000, 1225.000000)">
                <rect id="矩形" fill="#000000" opacity="0" x="0" y="0" width="34" height="34"></rect>
                <path d="M8,30 C5.790861,30 4,28.209139 4,26 C4,23.790861 5.790861,22 8,22 C10.209139,22 12,23.790861 12,26 C11.9964364,28.2076612 10.2076612,29.9964364 8,30 Z M8,24.3300971 C7.0777381,24.3300971 6.3300971,25.0777381 6.3300971,26 C6.3300971,26.9222619 7.0777381,27.6699029 8,27.6699029 C8.9222619,27.6699029 9.6699029,26.9222619 9.6699029,26 C9.66279259,25.0827974 8.91723014,24.3430145 8,24.3430421 L8,24.3300971 Z" id="形状" fill="#303133"></path>
                <path d="M4.48941042,26 L3.65197484,26 C1.63648226,25.9964172 0.00346603783,24.3083943 0,22.2250116 L0,19.6215714 C0.00214702931,18.529861 0.461409643,17.4925706 1.25930166,16.7773129 L5.50944476,12.9372385 C6.17156325,12.3367875 7.02131542,12.0039295 7.90211794,12 L11,12 L11,14.3430962 L7.90211794,14.3430962 C7.56665574,14.3421119 7.24224537,14.4669964 6.98912422,14.6945606 L2.73898111,18.5346351 C2.42622141,18.8012383 2.24213682,19.1960803 2.23526046,19.6150627 L2.23526046,22.218503 C2.23003235,22.6073459 2.3780299,22.9816627 2.64523422,23.2554124 C2.91243854,23.5291621 3.2758646,23.6787967 3.65197484,23.669921 L4.48941042,23.669921 L4.48941042,26 Z" id="路径" fill="#303133"></path>
                <polygon id="路径" fill="#FA0404" points="28 6 32 6 32 24 28 24"></polygon>
                <path d="M30.31288,26 L11,26 L11,7.6772701 C11.0104787,5.64576578 12.657174,4.00346955 14.6871199,4 L30.31288,4 C32.3477689,4.0035021 33.9965006,5.65351906 34,7.68999421 L34,22.3227299 C33.9895213,24.3542342 32.342826,25.9965305 30.31288,26 Z M13.3076285,23.7223829 L30.31288,23.7223829 C31.0852849,23.7223829 31.7114428,23.0957369 31.7114428,22.3227299 L31.7114428,7.68999421 C31.7114428,6.91698721 31.0852849,6.29034122 30.31288,6.29034122 L14.6871199,6.29034122 C13.9147151,6.29034122 13.2885572,6.91698721 13.2885572,7.68999421 L13.3076285,23.7223829 Z" id="形状" fill="#303133"></path>
                <path d="M20,26 C19.9998824,27.0717576 20.5716534,28.0621527 21.499905,28.5980654 C22.4281565,29.1339782 23.5718435,29.1339782 24.500095,28.5980654 C25.4283466,28.0621527 26.0001176,27.0717576 26,26 C26.0001176,24.9282424 25.4283466,23.9378473 24.500095,23.4019346 C23.5718435,22.8660218 22.4281565,22.8660218 21.499905,23.4019346 C20.5716534,23.9378473 19.9998824,24.9282424 20,26 L20,26 Z" id="路径" fill="#FFFFFF"></path>
                <path d="M23.0000585,30 C21.3822331,30 19.9237093,29.0254455 19.3045943,27.5307698 C18.6854794,26.0360941 19.0276974,24.3156479 20.1716727,23.1716727 C21.3156479,22.0276974 23.0360941,21.6854794 24.5307698,22.3045943 C26.0254455,22.9237093 27,24.3822331 27,26.0000585 C26.9964364,28.2076874 25.2076874,29.9964364 23.0000585,30 Z M23.0000585,24.33018 C22.07781,24.33018 21.33018,25.07781 21.33018,26.0000585 C21.33018,26.9223069 22.07781,27.669937 23.0000585,27.669937 C23.9223069,27.669937 24.669937,26.9223069 24.669937,26.0000585 C24.6628268,25.0828693 23.9172752,24.3430972 23.0000585,24.3431248 L23.0000585,24.33018 Z" id="形状" fill="#303133"></path>
                <path d="M20,26 C19.9998824,27.0717576 20.5716534,28.0621527 21.499905,28.5980654 C22.4281565,29.1339782 23.5718435,29.1339782 24.500095,28.5980654 C25.4283466,28.0621527 26.0001176,27.0717576 26,26 C26.0001176,24.9282424 25.4283466,23.9378473 24.500095,23.4019346 C23.5718435,22.8660218 22.4281565,22.8660218 21.499905,23.4019346 C20.5716534,23.9378473 19.9998824,24.9282424 20,26 L20,26 Z" id="路径" fill="#FFFFFF"></path>
                <path d="M23.0000585,30 C21.3822331,30 19.9237093,29.0254455 19.3045943,27.5307698 C18.6854794,26.0360941 19.0276974,24.3156479 20.1716727,23.1716727 C21.3156479,22.0276974 23.0360941,21.6854794 24.5307698,22.3045943 C26.0254455,22.9237093 27,24.3822331 27,26.0000585 C26.9964364,28.2076874 25.2076874,29.9964364 23.0000585,30 Z M23.0000585,24.33018 C22.07781,24.33018 21.33018,25.07781 21.33018,26.0000585 C21.33018,26.9223069 22.07781,27.669937 23.0000585,27.669937 C23.9223069,27.669937 24.669937,26.9223069 24.669937,26.0000585 C24.6628268,25.0828693 23.9172752,24.3430972 23.0000585,24.3431248 L23.0000585,24.33018 Z" id="形状" fill="#303133"></path>
            </g>
        </g>
    </g>
</svg>