<?xml version="1.0" encoding="UTF-8"?>
<svg width="48px" height="48px" viewBox="0 0 48 48" version="1.1" xmlns="http://www.w3.org/2000/svg" xmlns:xlink="http://www.w3.org/1999/xlink">
    <!-- Generator: Sketch 60.1 (88133) - https://sketch.com -->
    <title>首页</title>
    <desc>Created with Sketch.</desc>
    <g id="连贯" stroke="none" stroke-width="1" fill="none" fill-rule="evenodd">
        <g id="商品详情" transform="translate(-44.000000, -2868.000000)" fill-rule="nonzero">
            <g id="底部" transform="translate(0.000000, 2849.000000)">
                <g id="商家" transform="translate(44.000000, 19.000000)">
                    <rect id="矩形" fill="#000000" opacity="0" x="3.27272727" y="4.36363636" width="40.3636364" height="40.3636364"></rect>
                    <path d="M39.6827334,14.1818182 L7.22635754,14.1818182 C6.24783405,14.1818182 5.45454545,13.3941932 5.45454545,12.4226559 L5.45454545,8.30461685 C5.45454545,7.33307949 6.24783405,6.54545455 7.22635754,6.54545455 L39.6827334,6.54545455 C40.6612569,6.54545455 41.4545455,7.33307949 41.4545455,8.30461685 L41.4545455,12.4226559 C41.4545455,13.3901951 40.6612569,14.1818182 39.6827334,14.1818182 Z M8.03172666,11.6230366 L38.8773642,11.6230366 L38.8773642,9.10423608 L8.03172666,9.10423608 L8.03172666,11.6230366 Z" id="形状" fill="#555556"></path>
                    <path d="M41.9047678,22.905124 L41.9047678,21.1279339 L41.151891,21.3461157 L38.889319,13.4439669 L7.99377961,13.4439669 L5.76668345,21.3381818 L5.00986493,21.1279339 L5.00986493,22.9090909 C4.4777269,22.9090909 3.98106475,22.6631405 3.64995665,22.2347107 C3.31096502,21.7943802 3.19271212,21.2310744 3.32673207,20.6876033 L3.3346156,20.6519008 L6.0820245,10.9090909 L40.7813653,10.9090909 L43.5800171,20.6876033 C43.7179788,21.2310744 43.5997259,21.7943802 43.2567925,22.2347107 C42.933568,22.6591736 42.4369058,22.905124 41.9047678,22.905124 Z M41.9047678,20.366281 C41.6564367,20.366281 41.4238727,20.4813223 41.2740857,20.6717355 C41.1321822,20.8542149 41.0848811,21.0842975 41.1400657,21.3064463 L41.9047678,21.1120661 L41.9047678,20.366281 Z M5.00986493,21.1120661 L5.77456697,21.3064463 C5.82975166,21.0842975 5.7824505,20.8542149 5.64054703,20.6717355 C5.49076003,20.4813223 5.258196,20.366281 5.00986493,20.366281 L5.00986493,21.1120661 Z" id="形状" fill="#555556"></path>
                    <path d="M37.7449319,28.0569305 C34.5075418,28.0569305 31.8766795,25.3634566 31.8766795,22.0490202 C31.8766795,21.3489543 32.429122,20.7833643 33.1129144,20.7833643 C33.7967068,20.7833643 34.3491492,21.3489543 34.3491492,22.0490202 C34.3491492,23.9672799 35.8712634,25.5256187 37.7449319,25.5256187 C38.6682448,25.5256187 39.529746,25.1577875 40.1787693,24.4854078 C40.8084764,23.832804 41.1523042,22.9705759 41.1445777,22.0608857 C41.1407145,21.8433511 41.148441,21.6416372 41.1523042,21.4438785 C41.1561674,21.273806 41.1638939,21.0958231 41.1638939,20.9020195 C41.1638939,20.2019536 41.7163364,19.6363636 42.4001288,19.6363636 C43.0839212,19.6363636 43.6363636,20.2019536 43.6363636,20.9020195 C43.6363636,21.1353748 43.6325004,21.3370888 43.6247739,21.5190268 C43.6209107,21.70492 43.6131842,21.8670822 43.6170475,22.0331995 C43.6325004,23.6231797 43.0375624,25.1261461 41.9404039,26.2652364 C40.8200661,27.4241026 39.332721,28.0569305 37.7449319,28.0569305 L37.7449319,28.0569305 Z" id="路径" stroke="#555556" stroke-width="0.4" fill="#555556"></path>
                    <path d="M9.28061164,27.2727273 C7.6603751,27.2727273 6.14263529,26.6947044 5.00334488,25.6463649 C3.88376538,24.6159764 3.27272727,23.2516989 3.29243818,21.808437 C3.29243818,21.6576484 3.288496,21.5104501 3.28455382,21.3417105 C3.28061164,21.1801513 3.27272727,20.9934607 3.27272727,20.7852289 C3.27272727,20.1497628 3.8364592,19.6363636 4.5342253,19.6363636 C5.2319914,19.6363636 5.79572333,20.1497628 5.79572333,20.7852289 C5.79572333,20.9611489 5.79966551,21.122708 5.80754987,21.2770868 C5.81149206,21.456597 5.81937642,21.6396974 5.81543424,21.8371586 C5.80360769,22.6629055 6.15446183,23.4455699 6.80097957,24.0379536 C7.46326604,24.6482882 8.34237248,24.9821772 9.28455382,24.9821772 C11.1965118,24.9821772 12.7497312,23.5676369 12.7497312,21.826388 C12.7497312,21.1909219 13.3134631,20.6775228 14.0112292,20.6775228 C14.7089953,20.6775228 15.2727273,21.1909219 15.2727273,21.826388 C15.2687851,24.8277984 12.5802174,27.2727273 9.28061164,27.2727273 Z" id="路径" stroke="#555556" stroke-width="0.4" fill="#555556"></path>
                    <path d="M19.0911422,28.3636364 C17.4677688,28.3636364 15.9470906,27.6950988 14.8055944,26.482596 C13.6798975,25.2867028 13.0716262,23.7087882 13.0913753,22.0395206 C13.0992749,21.3045446 13.6719979,20.7190552 14.3671651,20.72736 C15.0662821,20.7356648 15.6232058,21.3377638 15.6153062,22.0685874 C15.6034568,23.023641 15.9549902,23.9288657 16.6027596,24.6140129 C17.2663283,25.3199221 18.1471367,25.7060959 19.0911422,25.7060959 C21.0068018,25.7060959 22.5630284,24.0700476 22.5630284,22.0561302 C22.5630284,21.3211542 23.1278517,20.72736 23.8269687,20.72736 C24.5260857,20.72736 25.0909091,21.3211542 25.0909091,22.0561302 C25.0909091,25.5358472 22.3971362,28.3636364 19.0911422,28.3636364 Z" id="路径" stroke="#555556" stroke-width="0.4" fill="#555556"></path>
                    <path d="M28.9073497,28.3636364 C27.2845104,28.3636364 25.7643326,27.6950912 24.623212,26.4825745 C23.4978855,25.2866677 22.8898144,23.708735 22.909557,22.0394483 C22.917454,21.3127688 23.4820915,20.7272727 24.1730814,20.7272727 L24.1888755,20.7272727 C24.8877625,20.7355776 25.4445029,21.3376835 25.4366059,22.0685155 C25.4247604,23.02358 25.7761781,23.9288151 26.4237344,24.61397 C27.0870847,25.3198873 27.9676034,25.7060655 28.9112982,25.7060655 C30.8263275,25.7060655 32.382042,24.0699985 32.382042,22.0560581 C32.382042,21.3210737 32.9466795,20.7272727 33.6455664,20.7272727 C34.3444534,20.7272727 34.9090909,21.3210737 34.9090909,22.0560581 C34.9051424,25.5358149 32.2122559,28.3636364 28.9073497,28.3636364 Z" id="路径" stroke="#555556" stroke-width="0.4" fill="#555556"></path>
                    <path d="M38.7648256,43.6363636 L8.94065959,43.6363636 C7.61943358,43.6363636 6.54545455,42.5368251 6.54545455,41.1841553 L6.54545455,26.4669503 C6.54545455,25.7668844 7.097897,25.2012944 7.78168941,25.2012944 C8.46548182,25.2012944 9.01792427,25.7668844 9.01792427,26.4669503 L9.01792427,41.1050518 L38.687561,41.1050518 L38.687561,30.0661593 C38.687561,29.3660934 39.2400034,28.8005034 39.9237958,28.8005034 C40.6075882,28.8005034 41.1600307,29.3660934 41.1600307,30.0661593 L41.1600307,41.1841553 C41.1600307,42.5328699 40.0860516,43.6363636 38.7648256,43.6363636 Z" id="形状" stroke="#555556" fill="#555556"></path>
                </g>
            </g>
        </g>
    </g>
</svg>