<?xml version="1.0" encoding="UTF-8"?>
<svg width="38px" height="37px" viewBox="0 0 38 37" version="1.1" xmlns="http://www.w3.org/2000/svg" xmlns:xlink="http://www.w3.org/1999/xlink">
    <!-- Generator: Sketch 60.1 (88133) - https://sketch.com -->
    <title>签到</title>
    <desc>Created with Sketch.</desc>
    <g id="连贯" stroke="none" stroke-width="1" fill="none" fill-rule="evenodd">
        <g id="味币流水" transform="translate(-33.000000, -507.000000)" fill="#FF2740" fill-rule="nonzero">
            <g id="编组" transform="translate(32.000000, 503.000000)">
                <g id="签到" transform="translate(1.000000, 4.000000)">
                    <path d="M26.6050453,15.3577179 C26.3687735,15.0692859 26.0250094,14.8891751 25.6528403,14.8588224 C25.2806712,14.8284697 24.9121426,14.9504886 24.6320393,15.1968071 L16.1630043,22.5863291 L13.4764899,19.6775557 C13.2240558,19.4012501 12.8696488,19.2394778 12.4950121,19.2295515 C12.1203754,19.2196251 11.7578585,19.3624017 11.4910751,19.6249503 C10.9292853,20.1774371 10.9059894,21.0741327 11.4383375,21.6549027 L15.0431063,25.5538967 C15.5500429,26.1050486 16.4053502,26.1517598 16.9695791,25.6591077 L26.4499347,17.3845759 C27.0386823,16.8600174 27.1071499,15.965339 26.6050453,15.3577179 L26.6050453,15.3577179 Z M9.33814096,8.53447839 C9.71972409,9.00745034 10.3618219,9.18394361 10.9324215,8.97269791 C11.5030212,8.7614522 11.8742013,8.20982622 11.8540338,7.60305204 L11.8540338,1.45440033 C11.8556099,1.07027945 11.7051017,0.701067978 11.4352353,0.427046364 C11.2543069,0.242557373 11.0255382,0.111853783 10.7744645,0.049524695 C10.6613179,0.0179344198 10.5445051,0.00128868359 10.4270169,1.36499918e-05 C9.62974875,1.36499918e-05 9,0.649845988 9,1.45440033 L9,7.5999576 C9,7.95581818 9.12719062,8.28073433 9.33814096,8.53447839 L9.33814096,8.53447839 Z M27.5698328,9.05125696 C27.9521283,9.052467 28.3184216,8.89827174 28.5842557,8.62421713 C28.8528873,8.34837437 29.0021686,7.97832845 28.9999762,7.59376869 L28.9999762,1.45440033 C29.0010064,1.06946735 28.8506359,0.699482466 28.5811534,0.423951889 C28.3155444,0.151809709 27.9505959,-0.00117405782 27.5698328,6.78558265e-06 C26.7756669,6.78558265e-06 26.1428159,0.649845988 26.1428159,1.45440033 L26.1428159,7.59376869 C26.1428159,7.99604584 26.3010286,8.36118973 26.5585121,8.62421713 C26.8190978,8.88724449 27.1789542,9.05125696 27.5698328,9.05125696 Z" id="形状"></path>
                    <path d="M37.924,7.79709094 C37.8606667,5.97345457 37.0278333,4.5114546 35.587,3.68000003 C34.694,3.16381823 33.8358333,3.0927273 33.1138333,3.0927273 L31.9833333,3.0927273 C31.1916667,3.0927273 30.5488333,3.78200001 30.5488333,4.63818185 C30.5488333,5.48509094 31.1885,6.1774546 31.9833333,6.17745456 C33.2183333,6.17745456 34.9885,6.02290912 35.055,7.85890912 C35.055,15.2956364 35.074,22.7261818 35.0708333,30.1629091 L35.0708333,32.1905454 C35.0708333,33.1209091 34.4058333,33.8565454 33.6015,33.8565454 L4.38899996,33.8565454 C3.55616662,33.8565454 2.91966663,33.0621818 2.91966667,32.1905454 L2.91966667,7.87436364 C2.91966667,6.69363636 3.83800001,6.0878182 4.84499997,6.0878182 L5.97233331,6.0878182 C6.76399996,6.0878182 7.40683332,5.39854549 7.40683332,4.54545455 C7.40683332,3.69236361 6.764,3 5.97233331,3 L4.84499997,3 C2.79299997,3 0.702999987,4.30436363 0.171000003,6.54527274 C0.0639434985,6.98078937 0.0065944456,7.42653266 0,7.87436364 L0,32.1905454 C0,33.9090909 0.877166652,35.5750909 2.29266665,36.4189091 C2.9165,36.7898182 3.62899998,37 4.39216667,37 L33.6078333,37 C36.0366667,37 38,34.7745455 38,32.1905454 L37.924,7.79709094 Z" id="路径"></path>
                    <path d="M14.4742577,7 L23.5290112,7 C24.3396895,7 25,6.10666669 25,5 C25,3.89333336 24.3396895,3 23.5290112,3 L14.4742577,3 C13.6603105,3 13,3.89333331 13,5 C13,6.10666664 13.6603105,7 14.4742577,7 Z" id="路径"></path>
                </g>
            </g>
        </g>
    </g>
</svg>