<?xml version="1.0" encoding="UTF-8"?>
<svg width="39px" height="42px" viewBox="0 0 39 42" version="1.1" xmlns="http://www.w3.org/2000/svg" xmlns:xlink="http://www.w3.org/1999/xlink">
    <!-- Generator: Sketch 60.1 (88133) - https://sketch.com -->
    <title>商品</title>
    <desc>Created with Sketch.</desc>
    <g id="连贯" stroke="none" stroke-width="1" fill="none" fill-rule="evenodd">
        <g id="味币流水" transform="translate(-32.000000, -967.000000)" fill="#FF2740" fill-rule="nonzero">
            <g id="编组备份-3" transform="translate(32.000000, 964.000000)">
                <g id="商品" transform="translate(0.000000, 3.000000)">
                    <path d="M35.8944444,7.74827586 L22.1722222,0.651724138 C20.5111111,-0.217241379 18.4888889,-0.217241379 16.8277778,0.651724138 L3.10555556,7.82068966 C1.22777778,8.68965517 0,10.7172414 0,12.8896552 L0,29.037931 C0,31.2103448 1.22777778,33.1655172 3.10555556,34.1793103 L16.9,41.3482759 C17.6944444,41.7827586 18.6333333,42 19.5722222,42 C20.5111111,42 21.3777778,41.7827586 22.2444444,41.3482759 L35.8944444,34.2517241 C37.8444444,33.237931 39,31.2827586 39,29.1103448 L39,12.8896552 C39,10.7172414 37.7722222,8.68965517 35.8944444,7.74827586 Z M18.2,3.1862069 C18.6333333,2.96896552 19.0666667,2.82413793 19.5,2.82413793 C19.9333333,2.82413793 20.4388889,2.89655172 20.8,3.1137931 L34.5222222,10.2103448 C34.7388889,10.2827586 34.8833333,10.4275862 35.1,10.5724138 L19.5,18.6827586 L3.9,10.7172414 C4.04444444,10.5724138 4.26111111,10.4275862 4.47777778,10.3551724 L18.2,3.1862069 Z M4.47777778,31.5724138 C3.46666667,31.0655172 2.88888889,30.0517241 2.88888889,28.9655172 L2.88888889,13.3965517 L8.66666667,16.3655172 L8.66666667,22.8827586 C8.66666667,23.462069 8.95555556,23.9689655 9.46111111,24.1862069 L10.4722222,24.6931034 C10.5444444,24.7655172 10.6888889,24.7655172 10.7611111,24.7655172 C11.1944444,24.7655172 11.4833333,24.4758621 11.4833333,24.0413793 L11.4833333,17.8137931 L17.9833333,21.1448276 L17.9833333,38.5965517 L4.47777778,31.5724138 Z M34.5222222,31.5724138 L20.9444444,38.6689655 L20.9444444,21.1448276 L36.1111111,13.3965517 L36.1111111,28.9655172 C36.1111111,30.0517241 35.5333333,31.0655172 34.5222222,31.5724138 L34.5222222,31.5724138 Z" id="形状"></path>
                </g>
            </g>
        </g>
    </g>
</svg>