<?xml version="1.0" encoding="UTF-8"?>
<svg width="52px" height="52px" viewBox="0 0 52 52" version="1.1" xmlns="http://www.w3.org/2000/svg" xmlns:xlink="http://www.w3.org/1999/xlink">
    <!-- Generator: Sketch 60.1 (88133) - https://sketch.com -->
    <title>客服</title>
    <desc>Created with Sketch.</desc>
    <g id="连贯" stroke="none" stroke-width="1" fill="none" fill-rule="evenodd">
        <g id="商品详情" transform="translate(-236.000000, -2864.000000)" fill-rule="nonzero">
            <g id="底部" transform="translate(0.000000, 2849.000000)">
                <g id="客服" transform="translate(236.000000, 15.000000)">
                    <rect id="矩形" fill="#000000" opacity="0" x="1" y="2" width="48" height="48"></rect>
                    <path d="M18.5935252,25.3078609 C18.5935252,27.1731632 20.1528667,28.7275582 22.024001,28.7275582 C23.8952297,28.7275582 25.4544768,27.1731632 25.4544768,25.307908 C25.4544768,23.4425587 23.8951825,21.8881637 22.0240482,21.8881637 C20.0749303,21.8881637 18.5935252,23.4425587 18.5935252,25.3078609 Z M33.9527062,21.8881637 C32.0815247,21.8881637 30.5222776,23.4425587 30.5222776,25.3078609 C30.5222776,27.1731632 32.0815247,28.7275582 33.9527062,28.7275582 C35.8238877,28.7275582 37.383182,27.1731632 37.383182,25.307908 C37.383182,23.4425587 35.8238877,21.8881637 33.9527534,21.8881637 L33.9527062,21.8881637 Z M47.1288657,22.5876697 L46.8949621,22.5876697 C44.5560207,14.5047404 37.227262,10.8518745 34.1086262,9.37521803 C33.9527062,9.29747946 33.8747698,9.21974089 33.7188026,9.14204937 C34.1086262,8.75345062 34.5764334,8.20937473 34.7323534,7.5099158 C34.8883206,6.7327183 34.654417,5.95552079 34.1086262,5.4114449 C33.640819,4.86741606 32.6273155,3.77931132 26.6239947,4.55655588 C20.7765939,5.17827624 6.97670722,9.84155536 4.2479422,22.5876697 L3.93605502,22.5876697 C2.9225515,22.5876697 2.14285714,23.3648672 2.14285714,24.3752333 L2.14285714,30.0488316 C2.14285714,31.0591507 2.92250429,31.8363952 3.93605502,31.8363952 L4.2479422,31.8363952 C6.27504367,41.7845797 14.6952895,46.1369045 22.8036954,46.9918406 L22.8036954,47.0695792 C22.8036954,48.0798983 23.5833425,48.8571429 24.5968932,48.8571429 L31.9256047,48.8571429 C32.9391555,48.8571429 33.7188026,48.0799454 33.7188026,47.0695792 L33.7188026,42.7949459 C33.7188026,41.7846268 32.9391555,41.0073822 31.9256047,41.0073822 L24.5968932,41.0073822 C23.5833425,41.0073822 22.8036954,41.7845797 22.8036954,42.7949459 L22.8036954,43.0281145 C18.1257653,42.4840857 10.251263,40.1524461 8.14617794,31.6032266 C8.69196871,31.2923193 9.15972867,30.6705519 9.15972867,29.971093 L9.15972867,24.2974948 C9.15972867,23.5980358 8.7699051,23.0539599 8.22411433,22.7430998 C11.3427501,10.6187058 26.9358347,8.36485187 27.0917547,8.2871133 C28.1053054,8.13168321 28.8849525,8.13168321 29.5866633,8.05394464 C29.4307433,8.44254339 29.3527597,8.83114214 29.3527597,9.29747946 C29.3527597,9.91924687 29.5866633,10.8518745 30.600214,11.7068105 C30.9900376,12.0954093 31.5358284,12.328578 32.4713955,12.7949153 C35.2001605,14.1161416 40.8136578,16.9140714 42.9187428,22.7430527 C42.372952,23.0539129 41.9831285,23.5979888 41.9831285,24.2974477 L41.9831285,29.9710459 C41.9831285,30.981365 42.7627756,31.7586096 43.7763264,31.7586096 L47.2068021,31.7586096 C48.2203529,31.7586096 49,30.9814121 49,29.9710459 L49,24.2974948 C48.9220636,23.3648201 48.1424165,22.5876697 47.1288657,22.5876697 L47.1288657,22.5876697 Z" id="形状" fill="#555556"></path>
                </g>
            </g>
        </g>
    </g>
</svg>