<?xml version="1.0" encoding="UTF-8"?>
<svg width="22px" height="27px" viewBox="0 0 22 27" version="1.1" xmlns="http://www.w3.org/2000/svg" xmlns:xlink="http://www.w3.org/1999/xlink">
    <!-- Generator: Sketch 60.1 (88133) - https://sketch.com -->
    <title>编组</title>
    <desc>Created with Sketch.</desc>
    <g id="连贯" stroke="none" stroke-width="1" fill="none" fill-rule="evenodd">
        <g id="商品详情备份-3" transform="translate(-117.000000, -1332.000000)" fill="#26AC51" fill-rule="nonzero">
            <g id="编组-5" transform="translate(0.000000, 1304.000000)">
                <g id="编组" transform="translate(117.000000, 28.000000)">
                    <path d="M11.0001712,0 C4.92511246,0 0,4.73048404 0,10.566206 C0,13.0638463 0.907149417,15.3549124 2.41564061,17.1634237 L2.40707937,17.1634237 L9.5320891,26.295123 C10.2656165,27.2352331 11.7336986,27.2349041 12.4668836,26.2944651 L19.4847065,17.2907234 C21.055866,15.4637915 22,13.1207529 22,10.565877 C22.0003424,4.73048404 17.07523,0 11.0001712,0 Z M11.0001712,14.968737 C8.46878259,14.968737 6.41682362,12.9977294 6.41682362,10.566206 C6.41682362,8.13468258 8.46878259,6.16367498 11.0001712,6.16367498 C13.5315599,6.16367498 15.5835188,8.13468258 15.5835188,10.566206 C15.5835188,12.9977294 13.5315599,14.968737 11.0001712,14.968737 Z" id="形状"></path>
                </g>
            </g>
        </g>
    </g>
</svg>