<?xml version="1.0" encoding="UTF-8"?>
<svg width="78px" height="77px" viewBox="0 0 78 77" version="1.1" xmlns="http://www.w3.org/2000/svg" xmlns:xlink="http://www.w3.org/1999/xlink">
    <!-- Generator: Sketch 60.1 (88133) - https://sketch.com -->
    <title>64-金币</title>
    <desc>Created with Sketch.</desc>
    <g id="连贯" stroke="none" stroke-width="1" fill="none" fill-rule="evenodd">
        <g id="签到备份-25" transform="translate(-35.000000, -164.000000)" fill-rule="nonzero">
            <g id="64-金币" transform="translate(30.000000, 160.000000)">
                <rect id="矩形" fill="#000000" opacity="0" x="0" y="0" width="88" height="88"></rect>
                <path d="M5,42.5 C5,56.2547249 12.3380582,68.9646153 24.2499998,75.841978 C36.1619413,82.7193407 50.8380587,82.7193407 62.7500002,75.841978 C74.6619418,68.9646153 82,56.2547249 82,42.5 C82,21.2370369 64.7629629,4 43.5,4 C22.2370371,4 5,21.2370369 5,42.5 L5,42.5 Z" id="路径" fill="#FFD96B"></path>
                <path d="M71.681706,15 L17,69.6858682 C32.1054436,84.7728154 56.5762623,84.7728154 71.6730743,69.6772372 C86.7698862,54.5730281 86.7785179,30.1042092 71.681706,15 Z" id="路径" fill="#FDC223"></path>
                <path d="M16,42 C16,57.463973 28.536027,70 44,70 C59.463973,70 72,57.463973 72,42 C72,26.536027 59.463973,14 44,14 C28.536027,14 16,26.536027 16,42 Z" id="路径" fill="#F9AB10"></path>
                <path d="M63,22.6135698 C52.0721711,12.2937941 34.8582714,12.4565125 24.1531099,23.1531099 C13.4565125,33.8582714 13.2937941,51.0721711 23.6135698,62 L63,22.6135698 Z" id="路径" fill="#F9B721"></path>
                <path d="M41.8351784,50.5455305 L34.9298893,50.5455305 L34.9298893,46.5522139 L41.8351784,46.5522139 L41.8351784,44.3884712 L34.9298893,44.3884712 L34.9298893,40.3951546 L39.7859779,40.3951546 L34,29 L39.7343173,29 L43.4538745,36.6942356 C43.9274293,37.6549708 44.2632226,38.5071011 44.4612546,39.2422723 C44.6937269,38.4486216 45.0295203,37.5964912 45.4686347,36.6942356 L49.2656827,29 L55,29 L49.1365314,40.3951546 L54.0701107,40.3951546 L54.0701107,44.3884712 L47.0701107,44.3884712 L47.0701107,46.5522139 L54.0701107,46.5522139 L54.0701107,50.5455305 L47.0701107,50.5455305 L47.0701107,59 L41.8437884,59 L41.8437884,50.5455305 L41.8351784,50.5455305 Z" id="路径" fill="#D3830D"></path>
                <polygon id="路径" fill="#BF790A" points="49.3260394 40 38 50.661752 41.5623632 50.661752 41.5623632 59 46.8840263 59 46.8840263 50.661752 54 50.661752 54 46.7233304 46.8840263 46.7233304 46.8840263 44.5893322 54 44.5893322 54 40.6509107 48.9846827 40.6509107"></polygon>
            </g>
        </g>
    </g>
</svg>