<?xml version="1.0" encoding="UTF-8"?>
<svg width="33px" height="33px" viewBox="0 0 33 33" version="1.1" xmlns="http://www.w3.org/2000/svg" xmlns:xlink="http://www.w3.org/1999/xlink">
    <!-- Generator: Sketch 60.1 (88133) - https://sketch.com -->
    <title>购物车按钮</title>
    <desc>Created with Sketch.</desc>
    <g id="连贯" stroke="none" stroke-width="1" fill="none" fill-rule="evenodd">
        <g id="购物车-空状态备份-6" transform="translate(-331.000000, -302.000000)">
            <g id="商品流卡片-横-购物车" transform="translate(21.000000, 209.000000)">
                <g id="购物车按钮" transform="translate(310.000000, 93.000000)">
                    <circle id="Oval" fill="#F8B900" cx="16.5" cy="16.5" r="16.5"></circle>
                    <path d="M16.5,7 C16.7761424,7 17,7.25583729 17,7.57142857 L17,7.57142857 L17,16 L26.4285714,16 C26.7126036,16 26.948235,16.1813247 26.992521,16.4188974 L27,16.5 C27,16.7761424 26.7441627,17 26.4285714,17 L26.4285714,17 L17,17 L17,26.4285714 C17,26.7126036 16.8186753,26.948235 16.5811026,26.992521 L16.5,27 C16.2238576,27 16,26.7441627 16,26.4285714 L16,26.4285714 L16,17 L7.57142857,17 C7.28739641,17 7.051765,16.8186753 7.00747904,16.5811026 L7,16.5 C7,16.2238576 7.25583729,16 7.57142857,16 L7.57142857,16 L16,16 L16,7.57142857 C16,7.28739641 16.1813247,7.051765 16.4188974,7.00747904 Z" id="Combined-Shape" stroke="#FFFFFF" stroke-width="2" fill="#FFFFFF" stroke-linecap="round" stroke-linejoin="bevel"></path>
                </g>
            </g>
        </g>
    </g>
</svg>