<?xml version="1.0" encoding="UTF-8"?>
<svg width="60px" height="60px" viewBox="0 0 60 60" version="1.1" xmlns="http://www.w3.org/2000/svg" xmlns:xlink="http://www.w3.org/1999/xlink">
    <!-- Generator: Sketch 60.1 (88133) - https://sketch.com -->
    <title>编组 7备份 78</title>
    <desc>Created with Sketch.</desc>
    <g id="连贯" stroke="none" stroke-width="1" fill="none" fill-rule="evenodd">
        <g id="签到备份-25" transform="translate(-284.000000, -2321.000000)" fill="#FF2740" fill-rule="nonzero">
            <g id="编组备份-3" transform="translate(20.000000, 1853.000000)">
                <g id="添加" transform="translate(264.000000, 468.000000)">
                    <path d="M29.897084,1.59519726 C14.2663653,1.59519726 1.59519726,14.2663653 1.59519726,29.897084 C1.59519726,45.5278028 14.2663653,58.1989708 29.897084,58.1989708 C45.5278028,58.1989708 58.1989708,45.5278028 58.1989708,29.897084 C58.1989708,14.2663653 45.5278028,1.59519726 29.897084,1.59519726 Z M46.8782161,29.897084 C46.8737343,31.4207339 45.6396855,32.6547826 44.1160357,32.6592645 L32.6592645,32.6592645 L32.6592645,44.1160357 C32.6547826,45.6396855 31.4207339,46.8737343 29.897084,46.8782161 C28.3734342,46.8737343 27.1393855,45.6396855 27.1349036,44.1160357 L27.1349036,32.6592645 L15.6781324,32.6592645 C14.1544826,32.6547826 12.9204338,31.4207339 12.915952,29.897084 C12.9204338,28.3734342 14.1544826,27.1393855 15.6781324,27.1349036 L27.1349036,27.1349036 L27.1349036,15.6781324 C27.1393855,14.1544826 28.3734342,12.9204338 29.897084,12.915952 C31.4207339,12.9204338 32.6547826,14.1544826 32.6592645,15.6781324 L32.6592645,27.1349036 L44.1160357,27.1349036 C45.6396855,27.1393855 46.8737343,28.3734342 46.8782161,29.897084 Z" id="形状"></path>
                </g>
            </g>
        </g>
    </g>
</svg>