<?xml version="1.0" encoding="UTF-8"?>
<svg width="70px" height="70px" viewBox="0 0 70 70" version="1.1" xmlns="http://www.w3.org/2000/svg" xmlns:xlink="http://www.w3.org/1999/xlink">
    <!-- Generator: Sketch 60.1 (88133) - https://sketch.com -->
    <title>编组</title>
    <desc>Created with Sketch.</desc>
    <defs>
        <linearGradient x1="100%" y1="1.6189487%" x2="1.6189487%" y2="100%" id="linearGradient-1">
            <stop stop-color="#FF6005" offset="0%"></stop>
            <stop stop-color="#FF2740" offset="37.8228866%"></stop>
            <stop stop-color="#FF2740" offset="100%"></stop>
        </linearGradient>
    </defs>
    <g id="连贯" stroke="none" stroke-width="1" fill="none" fill-rule="evenodd">
        <g id="一份惊喜备份-4" transform="translate(-271.000000, -3097.000000)">
            <g id="商品流卡片备份-2" transform="translate(19.000000, 2618.000000)">
                <g id="编组" transform="translate(252.000000, 479.000000)">
                    <circle id="椭圆形" fill="url(#linearGradient-1)" cx="35" cy="35" r="35"></circle>
                    <g id="购物车" transform="translate(12.000000, 13.000000)" fill-rule="nonzero">
                        <rect id="矩形" fill="#000000" opacity="0" x="0" y="0" width="48" height="48"></rect>
                        <path d="M40.9868674,12.3939337 C41.8628307,13.5532312 42.1933736,15.0504793 41.8896926,16.4834275 L40.5453542,29.4967446 C40.0315754,31.8246103 38.1635588,33.3660348 35.9985602,33.3660348 L15.4008807,33.3660348 C13.2299425,33.3660348 11.3243082,31.7545917 10.8728956,29.5413942 L8.37230742,8.03045402 C8.22381644,7.33432678 7.58035549,6.79853206 6.84977984,6.79853206 L3.92153761,6.79853206 C3.08701828,6.79853206 2.4,6.08819817 2.4,5.21347273 C2.4,4.33570294 3.08701828,3.6 3.92153761,3.6 L6.84977984,3.6 C9.01972812,3.6 10.9263524,5.21245798 11.377765,7.42464068 L13.8783531,28.9355808 C14.0268441,29.6317081 14.6703051,30.1675028 15.4008807,30.1675028 L36.0035099,30.1675028 C36.7435701,30.1706678 37.3817847,29.6352052 37.5250475,28.8909312 L38.8693859,15.8776142 C38.9990681,15.2971699 38.8931445,14.7816704 38.5912128,14.3808391 C38.3000359,13.9885174 37.8475487,13.7571632 37.3666572,13.7547305 L16.8075853,13.7547305 C15.972076,13.7547305 15.2850577,13.0393228 15.2850578,12.1686564 C15.2850578,11.2969752 15.972076,10.5815675 16.8075853,10.5815675 L37.3617075,10.5815675 C38.7773215,10.5815675 40.1078008,11.2513109 40.9868674,12.3939337 Z M34.0780768,39.3460316 C34.0595768,38.3668285 34.5586106,37.4537819 35.3829358,36.958624 C36.207261,36.4634662 37.2282422,36.4634662 38.0525674,36.958624 C38.8768926,37.4537819 39.3759264,38.3668285 39.3574263,39.3460316 C39.3295783,40.8200178 38.1559513,42 36.7177516,42 C35.2795519,42 34.1059248,40.8200178 34.0780768,39.3460316 L34.0780768,39.3460316 Z M12.9596889,39.3460316 C12.9411889,38.3668285 13.4402227,37.4537819 14.2645479,36.958624 C15.0888731,36.4634662 16.1098543,36.4634662 16.9341795,36.958624 C17.7585047,37.4537819 18.2575385,38.3668285 18.2390384,39.3460316 C18.2111904,40.8200178 17.0375634,42 15.5993637,42 C14.161164,42 12.9875369,40.8200178 12.9596889,39.3460316 L12.9596889,39.3460316 Z" id="形状" stroke="#FFFFFF" fill="#FFFFFF"></path>
                    </g>
                </g>
            </g>
        </g>
    </g>
</svg>