<?xml version="1.0" encoding="UTF-8"?>
<svg width="38px" height="38px" viewBox="0 0 38 38" version="1.1" xmlns="http://www.w3.org/2000/svg" xmlns:xlink="http://www.w3.org/1999/xlink">
    <!-- Generator: Sketch 60.1 (88133) - https://sketch.com -->
    <title>sousuo</title>
    <desc>Created with Sketch.</desc>
    <g id="连贯" stroke="none" stroke-width="1" fill="none" fill-rule="evenodd">
        <g id="首页备份-7" transform="translate(-181.000000, -154.000000)" fill-rule="nonzero">
            <g id="搜索" transform="translate(181.000000, 154.000000)">
                <rect id="矩形" fill="#000000" opacity="0" x="2.23529412" y="2.23529412" width="33.5294118" height="33.5294118"></rect>
                <path d="M29.7255241,27.6058824 L35.3214584,33.2025 C35.6050768,33.4826481 35.7647059,33.8646916 35.7647059,34.2633333 C35.7647059,34.661975 35.6050768,35.0440186 35.3214584,35.3241667 C35.0396348,35.6049654 34.658419,35.7632683 34.2605781,35.7647059 C33.8627372,35.7632683 33.4815214,35.6049654 33.1996977,35.3241667 L27.6056263,29.7294118 C21.4387772,34.8043898 12.4262106,34.3674851 6.77921291,28.7198039 C2.34282675,24.2828729 1.01562745,17.610779 3.41633459,11.8139479 C5.81704173,6.01711691 11.4730206,2.23678905 17.7475422,2.23529412 C26.3146867,2.23529412 33.2593082,9.18053921 33.2593082,17.7491667 C33.2593082,21.4234314 31.9627801,24.8853431 29.7245927,27.6068137 L29.7255241,27.6058824 Z M17.7475422,5.23897058 C10.8420401,5.25014704 5.24796858,10.8449019 5.2367916,17.7500981 C5.2367916,24.6590196 10.8383144,30.2612255 17.7475422,30.2612255 C24.6567701,30.2612255 30.2573614,24.6590196 30.2573614,17.7500981 C30.2573614,10.8402451 24.6567701,5.23897058 17.7475422,5.23897058 Z" id="形状" fill="#A1A1A1"></path>
            </g>
        </g>
    </g>
</svg>