<?xml version="1.0" encoding="UTF-8"?>
<svg width="28px" height="26px" viewBox="0 0 28 26" version="1.1" xmlns="http://www.w3.org/2000/svg" xmlns:xlink="http://www.w3.org/1999/xlink">
    <!-- Generator: Sketch 60.1 (88133) - https://sketch.com -->
    <title>门店</title>
    <desc>Created with Sketch.</desc>
    <g id="连贯" stroke="none" stroke-width="1" fill="none" fill-rule="evenodd">
        <g id="有地址确认订单页" transform="translate(-52.000000, -349.000000)" fill="#000000" fill-rule="nonzero">
            <g id="编组-6" transform="translate(20.000000, 326.000000)">
                <g id="门店" transform="translate(30.000000, 20.000000)">
                    <rect id="矩形" opacity="0" x="0" y="0" width="32" height="32"></rect>
                    <path d="M29.730656,11.3163001 C29.7292397,11.300037 29.7252986,11.2859021 29.7238823,11.2740224 C29.7101501,11.2139886 29.693924,11.1554477 29.6718479,11.0990032 L27.3037271,5.03273149 C26.893548,3.77443592 25.7175392,3.00292228 24.3394273,3 L7.72969882,3 C6.33363663,3 5.24999655,3.76452558 4.85764464,4.97336474 L2.31371527,11.163071 C2.30139942,11.1998219 2.28911437,11.2533441 2.27759906,11.3084545 C2.09236881,11.8924657 2,12.4925813 2,13.094158 C2.00203211,15.211445 3.12936264,17.142532 4.94176184,18.1384894 C4.94176184,18.1384894 4.94176184,18.1399506 4.94237763,18.1399506 C4.94367079,18.1399506 4.94367079,18.1399506 4.94367079,18.1414117 C4.94367079,18.1414117 4.94428658,18.1414117 4.94428658,18.142714 C5.69087288,18.5531991 6.56800709,18.7592515 7.55659967,18.7592515 C9.21388085,18.7550269 10.7472647,18.0059386 11.7938648,16.7224543 C12.8338453,17.994726 14.3561756,18.7393991 16.0108089,18.7508023 C17.6515868,18.7368262 19.1693295,17.9905014 20.2056768,16.7182297 C21.2518151,18.0004117 22.7886782,18.7480389 24.4525791,18.7480389 C25.4589681,18.7423214 26.3543913,18.5250562 27.1093524,18.0991022 C28.8937022,17.0947273 30.0012966,15.1686908 29.9999414,13.0731621 C30.002713,12.4707913 29.9070189,11.8656252 29.7306252,11.3162684 L29.730656,11.3163001 Z M26.1414504,16.5375883 C25.6847482,16.7956701 25.1132932,16.9282209 24.4500851,16.9311432 C23.2207795,16.9311432 22.101054,16.2893851 21.4460667,15.1982948 C21.3995744,15.0945538 21.3202604,14.9245851 21.1766577,14.760334 C21.008608,14.5677811 20.7063773,14.3400974 20.208571,14.3400974 C19.8051348,14.3400974 19.4414788,14.5093991 19.2363585,14.7689737 C19.0996834,14.9283333 19.0257576,15.0849611 18.9724916,15.1984854 C18.3256636,16.275409 17.2153905,16.9243139 16.0108397,16.9342243 C14.7905245,16.9270774 13.6761564,16.2797924 13.02588,15.194896 C12.980804,15.098969 12.9048153,14.9374495 12.7865832,14.8013412 C12.3120847,14.2181558 11.2497202,14.2483632 10.8360619,14.7562682 C10.6836225,14.9283333 10.6035388,15.1012243 10.5523049,15.2174802 C9.90079689,16.2951026 8.77882375,16.9427052 7.55441361,16.9454369 C6.90287482,16.9454369 6.34355089,16.8186036 5.89442295,16.5715757 L5.89097451,16.5715757 C4.73624124,15.9389339 3.76073424,14.4415831 3.7599645,13.0945074 C3.7599645,12.696728 3.82348345,12.2948509 3.95353874,11.9040596 C3.96314509,11.8759167 3.97056539,11.8448516 3.97813963,11.8129607 L6.48385911,5.44906107 C6.53509301,5.29259205 6.69036498,4.81854744 7.46912641,4.81854744 L24.6003384,4.81854744 C24.9215971,4.83757402 25.472731,4.89611491 25.6681834,5.4898777 L28.0145667,11.7719852 C28.0221021,11.8123317 28.0320978,11.8521475 28.0444942,11.8911952 C28.1758119,12.2833206 28.238568,12.681926 28.238568,13.0767831 C28.2415477,14.4075957 27.2777407,15.8977996 26.1414504,16.5375883 Z M27.0273904,19.6096667 C26.4694828,19.6096667 26.1468078,20.0751351 26.1468078,20.6493948 L26.1496404,26.4540272 C26.1496404,26.7770027 25.8939328,27.0394996 25.5808641,27.0406114 L6.07115527,27.0533169 C5.75808658,27.0533169 5.50379525,26.7924399 5.50379525,26.472228 L5.49622101,20.7635543 C5.49560522,20.1909145 5.17212965,19.7267803 4.61563836,19.7267803 L4.61357546,19.7267803 C4.05711496,19.7282414 3.73440913,20.1937098 3.73520818,20.7690813 L3.74198337,26.3409795 C3.74198337,27.8066299 4.90222799,29 6.32827924,29 L25.3265728,28.9872944 C26.7513617,28.9844039 27.9109905,27.7883974 27.9109905,26.3213176 L27.9081578,20.649236 C27.9079731,20.0739916 27.5852981,19.6096667 27.0273904,19.6096667 Z M23.898982,12.0660555 L7.74610968,12.0660555 C7.18820207,12.0660555 6.73624148,11.7324709 6.73624148,11.159037 C6.73624148,10.5863972 7.18884865,10.2520503 7.74610968,10.2520503 L23.8989512,10.2520503 C24.4567049,10.2520503 24.9078958,10.5863972 24.9078958,11.159037 C24.9078958,11.7323121 24.4568589,12.0660237 23.898982,12.0660237 L23.898982,12.0660555 Z" id="形状"></path>
                </g>
            </g>
        </g>
    </g>
</svg>