<?xml version="1.0" encoding="UTF-8"?>
<svg width="30px" height="28px" viewBox="0 0 30 28" version="1.1" xmlns="http://www.w3.org/2000/svg" xmlns:xlink="http://www.w3.org/1999/xlink">
    <!-- Generator: Sketch 60.1 (88133) - https://sketch.com -->
    <title>物流</title>
    <desc>Created with Sketch.</desc>
    <g id="连贯" stroke="none" stroke-width="1" fill="none" fill-rule="evenodd">
        <g id="个人中心备份-3" transform="translate(-69.000000, -646.000000)" fill-rule="nonzero">
            <g id="我的订单" transform="translate(20.000000, 400.000000)">
                <g id="物流" transform="translate(47.000000, 243.000000)">
                    <rect id="矩形" fill="#000000" opacity="0" x="0" y="0" width="34" height="34"></rect>
                    <path d="M11.6096904,19.1271676 L7.31820804,19.1271676 C6.72409154,19.1271676 6.24533742,18.6473988 6.24533742,18.0520231 C6.24533742,17.4566474 6.7240915,16.9768786 7.31820804,16.9768786 L10.5368199,16.9768786 L10.5368199,13.7514451 C10.5368199,13.1560694 11.0155739,12.6763005 11.6096905,12.6763005 C12.203807,12.6763005 12.6825611,13.1560693 12.6825611,13.7514451 L12.6825611,18.0520231 C12.6825611,18.6473988 12.203807,19.1271676 11.6096904,19.1271676 Z M23.3535858,22.1849711 C21.2770621,22.1849711 19.5408575,23.6416185 19.0851759,25.583815 L14.9321284,25.583815 C14.4764468,23.6358382 12.7402422,22.1849711 10.6637185,22.1849711 C8.24110746,22.1849711 6.26840989,24.1618497 6.26840989,26.5895954 C6.26840989,29.0231214 8.24110746,31 10.6637185,31 C12.6883291,31 14.3783887,29.6127167 14.8859834,27.7398844 L19.1255527,27.7398844 C19.6331474,29.6127168 21.323207,31 23.3535858,31 C25.7761968,31 27.7488944,29.0231214 27.7488944,26.5953757 C27.7488944,24.1676301 25.7761969,22.1849711 23.3535858,22.1849711 Z M10.6637185,28.8439306 C9.42357238,28.8439306 8.41415113,27.83237 8.41415113,26.583815 C8.41415113,25.3410405 9.42357238,24.3294798 10.6637185,24.3294798 C11.9038646,24.3294798 12.9132859,25.3410405 12.9132859,26.583815 C12.9132859,27.83237 11.9038646,28.8439306 10.6637185,28.8439306 Z M23.3535858,28.8381503 C22.1134397,28.8381503 21.1040185,27.8265896 21.1040185,26.583815 C21.1040185,25.3410405 22.1134397,24.3294798 23.3535858,24.3294798 C24.593732,24.3294798 25.6031532,25.3410405 25.6031532,26.583815 C25.6031532,27.8265896 24.593732,28.8381503 23.3535858,28.8381503 Z M28.7813882,3 L13.2132282,3 C11.7365891,3 10.5368199,4.20231214 10.5368199,5.68208092 L10.5368199,8.79190749 L4.01307442,12.0751445 C3.96692945,12.0982659 3.92078447,12.1271676 3.88040761,12.1560694 C2.6691021,13.0115607 2,14.3410405 2,15.9017341 L2,26.7225433 C2,27.3179191 2.47875408,27.7976879 3.07287062,27.7976879 C3.66698715,27.7976879 4.14574123,27.3179191 4.14574123,26.7225433 L4.1457412,15.9017341 C4.1457412,15.0635838 4.45145164,14.4046242 5.05133627,13.9537572 L12.0942126,10.4161849 C12.1403576,10.3930636 12.1749664,10.3468208 12.2153432,10.317919 C12.2787925,10.2716763 12.3422418,10.2312138 12.3941549,10.1791907 C12.4402999,10.1271676 12.4749086,10.0693641 12.5095174,10.0115607 C12.5441261,9.9537572 12.5845029,9.90173407 12.6075754,9.83236992 C12.636416,9.75722543 12.6421842,9.6820809 12.6537204,9.60693641 C12.6594885,9.55491329 12.682561,9.50867051 12.682561,9.45664739 L12.682561,5.68208092 C12.682561,5.39306356 12.919054,5.15028901 13.2132282,5.15028901 L28.7813882,5.15028901 C29.3697365,5.15028901 29.8542588,5.64161848 29.8542588,6.24277457 L29.8542588,26.6531792 C29.8542588,27.2485549 30.3330128,27.7283237 30.9271294,27.7283237 C31.5212459,27.7283237 32,27.2485549 32,26.6531792 L32,6.24277457 C32,4.4566474 30.5522015,3 28.7813882,3 Z" id="形状" fill="#333333"></path>
                </g>
            </g>
        </g>
    </g>
</svg>